:SAMPLES-PER-SECOND 30
:FULLY-SPECIFIED
:DEGREES
463
root  -32.9906 39.4096 -20.2861 162.701 -78.3776 -161.016
RightUpLeg  -21.2218 -7.84568 0.16056
RightLeg  54.1757 -6.49877 -9.96064
RightFoot  -4.69138 -0.141747 1.90855
RightToes  0.000482159 0.542163 -0.142577
Spine  48.1987 -3.22837 6.9499
Spine1  10.6587 2.90929 -10.3486
HEad  -13.1114 36.9685 -32.0863
LeftShoulder1  11.1235 -18.0412 -44.9745
LeftArm  -9.48323 7.00229 -15.135
LeftForeArm  16.0306 -6.00556 -6.12631
LeftHand  -0.25398 0.0180481 5.50724
RightShoulder  7.44837 14.3041 35.8263
RightArm  10.4872 2.04189 30.9926
RightForeArm  -13.4151 17.457 7.58198
RightHand  -2.31027 6.11108 -23.3801
LeftUpLeg  -24.1888 16.1001 -2.85849
LeftLeg  9.06083 12.0773 -4.71236
LeftFoot  10.8943 -3.5213 17.4361
LeftToes  1.06245e-005 4.65856e-005 -8.18503e-006
464
root  -32.3773 39.202 -20.125 162.964 -78.5011 -163.071
RightUpLeg  -15.5605 -7.73414 -0.0178086
RightLeg  55.9405 -4.73587 -7.93542
RightFoot  -6.65443 -0.180465 3.31395
RightToes  0.000482159 0.542163 -0.142577
Spine  45.2145 -2.74489 6.73529
Spine1  10.7918 3.23058 -10.818
HEad  -10.1696 41.4126 -31.2578
LeftShoulder1  10.9815 -17.3389 -45.9399
LeftArm  -7.46108 15.3833 -12.4163
LeftForeArm  14.3098 -6.60245 -6.11082
LeftHand  -0.25398 0.0180481 5.50724
RightShoulder  7.27462 13.6364 36.4333
RightArm  12.2798 -3.37659 32.1296
RightForeArm  -15.7748 20.4028 6.37078
RightHand  -1.95278 4.97322 -21.9925
LeftUpLeg  -23.2361 15.781 -2.9916
LeftLeg  8.90378 12.4956 -4.82432
LeftFoot  11.6433 -3.69517 17.6734
LeftToes  1.06245e-005 4.65856e-005 -8.18503e-006
465
root  -31.7217 38.9274 -19.9792 162.824 -78.5876 -164.869
RightUpLeg  -9.26583 -7.58961 -0.0874919
RightLeg  55.5194 -3.13926 -5.34955
RightFoot  -7.78812 -0.222303 5.39257
RightToes  0.000482159 0.542163 -0.142577
Spine  42.3061 -2.10022 6.51463
Spine1  11.0618 3.67961 -11.019
HEad  -7.21055 45.2333 -30.3813
LeftShoulder1  10.7724 -16.6285 -46.6789
LeftArm  -4.65049 22.678 -9.49957
LeftForeArm  12.0616 -6.98606 -6.35005
LeftHand  -0.25398 0.0180481 5.50724
RightShoulder  7.09884 13.0386 36.895
RightArm  12.3265 -8.13547 32.8952
RightForeArm  -16.8792 23.0201 5.85445
RightHand  -1.8448 4.43912 -21.8803
LeftUpLeg  -22.8393 17.1916 -3.86214
LeftLeg  9.71616 11.3944 -4.36995
LeftFoot  12.008 -3.88855 18.2971
LeftToes  1.06245e-005 4.65856e-005 -8.18503e-006
466
root  -31.0064 38.5938 -19.8135 164.743 -78.5851 -168.387
RightUpLeg  -3.32306 -7.28172 -0.446517
RightLeg  53.3452 -1.70504 -2.86993
RightFoot  -8.47911 -0.249654 7.73275
RightToes  0.000482159 0.542163 -0.142577
Spine  38.9021 -1.24816 6.00901
Spine1  11.5139 4.18571 -11.0691
HEad  -4.44497 48.4433 -29.3502
LeftShoulder1  10.2693 -15.8751 -46.2168
LeftArm  -2.18875 29.4583 -7.90097
LeftForeArm  10.9862 -7.38821 -6.46504
LeftHand  -0.25398 0.0180481 5.50724
RightShoulder  6.87915 12.4988 36.9704
RightArm  11.2361 -12.1015 33.686
RightForeArm  -16.4254 25.055 6.14455
RightHand  -2.00092 4.75982 -22.9508
LeftUpLeg  -22.8821 17.8646 -4.91668
LeftLeg  10.3561 10.8816 -3.85152
LeftFoot  12.5231 -4.04855 18.6234
LeftToes  1.06245e-005 4.65856e-005 -8.18503e-006
467
root  -30.2365 38.243 -19.5845 170.468 -78.276 -174.746
RightUpLeg  1.097 -6.73765 -1.31982
RightLeg  49.8644 -0.809188 -1.38327
RightFoot  -11.0639 -0.0963286 9.26646
RightToes  0.000482159 0.542163 -0.142577
Spine  34.0269 -0.17296 5.21216
Spine1  12.4287 4.7925 -11.0697
HEad  -1.64808 51.0756 -27.6486
LeftShoulder1  9.54457 -14.9829 -44.9889
LeftArm  -0.682898 35.573 -7.5161
LeftForeArm  10.8832 -7.74583 -6.3054
LeftHand  -0.25398 0.0180481 5.50724
RightShoulder  6.65138 12.0546 36.7438
RightArm  10.697 -14.9541 34.5103
RightForeArm  -15.2041 26.4124 6.4285
RightHand  -2.05129 4.86682 -23.2703
LeftUpLeg  -23.2824 16.304 -5.75132
LeftLeg  9.56426 12.8036 -4.02904
LeftFoot  13.8477 -4.30971 18.7281
LeftToes  1.06245e-005 4.65856e-005 -8.18503e-006
468
root  -29.3857 37.9347 -19.275 176.483 -77.4079 179.105
RightUpLeg  4.08983 -6.42214 -2.3352
RightLeg  45.4521 -1.06432 -1.46155
RightFoot  -17.0113 0.328259 9.09503
RightToes  0.000482159 0.542163 -0.142577
Spine  28.4407 0.920523 4.87671
Spine1  13.5818 5.64037 -11.2003
HEad  1.76283 53.1481 -25.0929
LeftShoulder1  8.79241 -14.0003 -43.7136
LeftArm  -0.307948 40.6329 -7.96625
LeftForeArm  10.4496 -7.94658 -5.90289
LeftHand  -0.25398 0.0180481 5.50724
RightShoulder  6.47662 11.7375 36.4951
RightArm  10.4778 -16.5979 35.0793
RightForeArm  -13.2238 27.2386 6.53436
RightHand  -1.8361 4.22507 -22.2337
LeftUpLeg  -23.1012 12.8371 -5.42588
LeftLeg  6.4529 17.6821 -5.68915
LeftFoot  16.1795 -4.96331 19.629
LeftToes  1.06245e-005 4.65856e-005 -8.18503e-006
469
root  -28.3692 37.7021 -18.8825 176.746 -76.2414 177.941
RightUpLeg  6.80813 -7.06436 -2.74473
RightLeg  40.5904 -2.31656 -2.41482
RightFoot  -24.1268 0.653262 7.33854
RightToes  0.000482159 0.542163 -0.142577
Spine  24.5227 1.67574 6.25557
Spine1  14.5368 6.75987 -11.717
HEad  5.55528 54.5645 -22.5821
LeftShoulder1  8.16179 -13.1301 -42.6424
LeftArm  -1.23816 44.2509 -9.66143
LeftForeArm  9.4478 -8.01329 -5.37879
LeftHand  -0.25398 0.0180481 5.50724
RightShoulder  6.33423 11.4898 36.2546
RightArm  9.63935 -17.2563 35.2521
RightForeArm  -11.2593 28.0568 6.63953
RightHand  -1.5943 3.41905 -21.1055
LeftUpLeg  -21.2752 8.042 -2.93251
LeftLeg  1.07023 23.756 -8.88903
LeftFoot  19.5435 -5.66876 19.885
LeftToes  1.06245e-005 4.65856e-005 -8.18503e-006
470
root  -27.1657 37.5679 -18.3965 169.595 -75.2895 -176.821
RightUpLeg  9.39637 -9.02012 -2.15114
RightLeg  36.4845 -3.23887 -2.85496
RightFoot  -28.5482 0.501113 4.55942
RightToes  0.000482159 0.542163 -0.142577
Spine  23.1248 1.80734 10.0033
Spine1  15.2805 7.87676 -12.4746
HEad  8.67197 55.2365 -21.3291
LeftShoulder1  7.76405 -12.4661 -42.2242
LeftArm  -3.30514 45.9881 -12.61
LeftForeArm  8.6352 -8.1324 -4.89296
LeftHand  -0.25398 0.0180481 5.50724
RightShoulder  6.206 11.2483 36.0825
RightArm  7.77451 -17.1127 34.7605
RightForeArm  -10.2214 29.1623 6.86239
RightHand  -1.48464 2.91589 -20.83
LeftUpLeg  -18.7574 4.74959 0.434165
LeftLeg  -3.84417 25.2543 -10.9756
LeftFoot  23.8971 -4.77689 14.5919
LeftToes  1.06245e-005 4.65856e-005 -8.18503e-006
471
root  -25.8516 37.5311 -17.8296 159.392 -74.7906 -168.272
RightUpLeg  10.3961 -11.779 -0.982985
RightLeg  34.4529 -2.93978 -2.43484
RightFoot  -29.5107 0.122001 1.99479
RightToes  0.000482159 0.542163 -0.142577
Spine  22.6026 1.42706 14.8777
Spine1  15.8761 8.56561 -12.8794
HEad  10.9596 55.3502 -21.1023
LeftShoulder1  7.55916 -11.8671 -42.7423
LeftArm  -6.07268 45.9858 -16.1344
LeftForeArm  8.38272 -8.61524 -4.46601
LeftHand  -0.25398 0.0180481 5.50724
RightShoulder  6.14905 11.0531 36.2517
RightArm  5.37883 -16.2809 33.4113
RightForeArm  -9.85085 29.9762 7.04891
RightHand  -1.46805 2.74193 -21.0211
LeftUpLeg  -17.5884 5.03997 2.95853
LeftLeg  -5.24636 20.3644 -9.81231
LeftFoot  27.7326 -0.952434 2.19657
LeftToes  1.06245e-005 4.65856e-005 -8.18503e-006
472
root  -24.5036 37.5877 -17.2518 151.638 -75.0896 -161.088
RightUpLeg  8.95786 -14.2562 -0.0250083
RightLeg  34.4736 -2.21379 -1.90385
RightFoot  -28.7475 -0.074477 0.790957
RightToes  0.000482159 0.542163 -0.142577
Spine  21.7824 1.04667 18.5093
Spine1  15.9679 8.66143 -12.7282
HEad  13.461 55.1803 -20.3689
LeftShoulder1  7.36222 -11.2194 -43.4971
LeftArm  -9.35443 45.0978 -20.074
LeftForeArm  8.53351 -9.67104 -3.99884
LeftHand  -0.25398 0.0180481 5.50724
RightShoulder  6.16725 10.9312 36.722
RightArm  3.0477 -15.0839 31.8564
RightForeArm  -9.46689 29.6355 6.94432
RightHand  -1.53697 3.01537 -21.2935
LeftUpLeg  -17.6612 5.41643 4.77065
LeftLeg  -5.27447 16.1206 -8.82321
LeftFoot  28.4863 3.41229 -10.0065
LeftToes  1.06245e-005 4.65856e-005 -8.18503e-006
473
root  -23.1027 37.8355 -16.7173 148.475 -76.6297 -157.795
RightUpLeg  6.17525 -16.0831 0.0751794
RightLeg  34.6915 -2.17873 -1.89178
RightFoot  -26.8885 -0.127363 0.402207
RightToes  0.000482159 0.542163 -0.142577
Spine  21.1936 0.871674 19.6653
Spine1  15.4661 8.4207 -12.4163
HEad  16.5558 54.6951 -18.4524
LeftShoulder1  7.07765 -10.6095 -43.6237
LeftArm  -12.7242 43.7245 -24.4214
LeftForeArm  9.39334 -11.1592 -3.56923
LeftHand  -0.25398 0.0180481 5.50724
RightShoulder  6.1477 10.7893 37.0011
RightArm  0.903224 -14.1117 31.1905
RightForeArm  -9.56582 28.3728 6.63368
RightHand  -1.73604 3.82058 -21.9464
LeftUpLeg  -18.1858 5.63969 4.67248
LeftLeg  -3.97485 14.5246 -8.7178
LeftFoot  24.897 4.52788 -14.1924
LeftToes  1.06245e-005 4.65856e-005 -8.18503e-006
474
root  -21.6879 38.2879 -16.2197 148.975 -79.0062 -158.229
RightUpLeg  3.90493 -17.6495 -0.856903
RightLeg  33.5621 -2.69854 -2.18941
RightFoot  -23.8466 -0.183018 -0.209291
RightToes  0.000482159 0.542163 -0.142577
Spine  21.395 0.758241 19.2217
Spine1  14.7541 8.26155 -12.3995
HEad  19.3071 53.7086 -16.2904
LeftShoulder1  6.81556 -10.1816 -43.3035
LeftArm  -15.0687 41.4838 -28.1802
LeftForeArm  11.7196 -12.8198 -3.39799
LeftHand  -0.25398 0.0180481 5.50724
RightShoulder  6.03519 10.5789 36.8497
RightArm  -0.825654 -13.8862 31.5936
RightForeArm  -11.2288 27.4828 6.49742
RightHand  -2.01606 4.81523 -22.9966
LeftUpLeg  -18.3458 6.90237 2.43251
LeftLeg  -0.758931 13.6679 -7.85652
LeftFoot  18.2934 2.79097 -10.8511
LeftToes  1.06245e-005 4.65856e-005 -8.18503e-006
475
root  -20.3673 38.8028 -15.7133 151.654 -81.1162 -160.98
RightUpLeg  2.63835 -19.2223 -2.2904
RightLeg  31.1885 -2.83494 -2.10919
RightFoot  -20.2459 -0.219725 -1.06236
RightToes  0.000482159 0.542163 -0.142577
Spine  21.8397 0.773799 18.8563
Spine1  14.0262 8.42138 -12.8282
HEad  21.1598 52.3591 -14.6899
LeftShoulder1  6.68071 -9.94788 -43.1751
LeftArm  -15.7329 38.4017 -30.4472
LeftForeArm  15.3627 -14.7373 -3.46048
LeftHand  -0.25398 0.0180481 5.50724
RightShoulder  5.92409 10.4008 36.6077
RightArm  -1.25228 -14.4472 32.2257
RightForeArm  -13.921 27.6487 6.66742
RightHand  -2.22405 5.51197 -23.7402
LeftUpLeg  -19.0005 12.9277 -1.87965
LeftLeg  5.68461 8.4552 -4.15367
LeftFoot  11.2759 1.29774 -6.91961
LeftToes  1.06245e-005 4.65856e-005 -8.18503e-006
